<svg width="213" height="214" viewBox="0 0 213 214" fill="none" xmlns="http://www.w3.org/2000/svg">
<circle cx="106.5" cy="106.821" r="106.296" fill="#555555"/>
<path d="M40.2997 101.109C37.9157 101.109 36.0517 100.445 34.7077 99.1175C33.3637 97.7895 32.6917 95.8935 32.6917 93.4295V84.0215H36.5797V93.2855C36.5797 94.8855 36.9077 96.0375 37.5637 96.7415C38.2197 97.4455 39.1397 97.7975 40.3237 97.7975C41.5077 97.7975 42.4277 97.4455 43.0837 96.7415C43.7397 96.0375 44.0677 94.8855 44.0677 93.2855V84.0215H47.9077V93.4295C47.9077 95.8935 47.2357 97.7895 45.8917 99.1175C44.5477 100.445 42.6837 101.109 40.2997 101.109ZM51.7498 100.821V84.0215H54.9658L64.8778 96.1175H63.3178V84.0215H67.1578V100.821H63.9658L54.0298 88.7255H55.5898V100.821H51.7498ZM71.1326 100.821V84.0215H75.0206V100.821H71.1326ZM83.9773 100.821L76.7293 84.0215H80.9293L87.2653 98.9015H84.7933L91.2253 84.0215H95.0893L87.8173 100.821H83.9773ZM100.068 90.7895H108.156V93.8135H100.068V90.7895ZM100.356 97.7015H109.5V100.821H96.4919V84.0215H109.188V87.1415H100.356V97.7015ZM112.594 100.821V84.0215H119.866C121.37 84.0215 122.666 84.2695 123.754 84.7655C124.842 85.2455 125.682 85.9415 126.274 86.8535C126.866 87.7655 127.162 88.8535 127.162 90.1175C127.162 91.3655 126.866 92.4455 126.274 93.3575C125.682 94.2535 124.842 94.9415 123.754 95.4215C122.666 95.9015 121.37 96.1415 119.866 96.1415H114.754L116.482 94.4375V100.821H112.594ZM123.274 100.821L119.074 94.7255H123.226L127.474 100.821H123.274ZM116.482 94.8695L114.754 93.0455H119.65C120.85 93.0455 121.746 92.7895 122.338 92.2775C122.93 91.7495 123.226 91.0295 123.226 90.1175C123.226 89.1895 122.93 88.4695 122.338 87.9575C121.746 87.4455 120.85 87.1895 119.65 87.1895H114.754L116.482 85.3415V94.8695ZM135.762 101.109C134.418 101.109 133.13 100.933 131.898 100.581C130.666 100.213 129.674 99.7415 128.922 99.1655L130.242 96.2375C130.962 96.7495 131.81 97.1735 132.786 97.5095C133.778 97.8295 134.778 97.9895 135.786 97.9895C136.554 97.9895 137.17 97.9175 137.634 97.7735C138.114 97.6135 138.466 97.3975 138.69 97.1255C138.914 96.8535 139.026 96.5415 139.026 96.1895C139.026 95.7415 138.85 95.3895 138.498 95.1335C138.146 94.8615 137.682 94.6455 137.106 94.4855C136.53 94.3095 135.89 94.1495 135.186 94.0055C134.498 93.8455 133.802 93.6535 133.098 93.4295C132.41 93.2055 131.778 92.9175 131.202 92.5655C130.626 92.2135 130.154 91.7495 129.786 91.1735C129.434 90.5975 129.258 89.8615 129.258 88.9655C129.258 88.0055 129.514 87.1335 130.026 86.3495C130.554 85.5495 131.338 84.9175 132.378 84.4535C133.434 83.9735 134.754 83.7335 136.338 83.7335C137.394 83.7335 138.434 83.8615 139.458 84.1175C140.482 84.3575 141.386 84.7255 142.17 85.2215L140.97 88.1735C140.186 87.7255 139.402 87.3975 138.618 87.1895C137.834 86.9655 137.066 86.8535 136.314 86.8535C135.562 86.8535 134.946 86.9415 134.466 87.1175C133.986 87.2935 133.642 87.5255 133.434 87.8135C133.226 88.0855 133.122 88.4055 133.122 88.7735C133.122 89.2055 133.298 89.5575 133.65 89.8295C134.002 90.0855 134.466 90.2935 135.042 90.4535C135.618 90.6135 136.25 90.7735 136.938 90.9335C137.642 91.0935 138.338 91.2775 139.026 91.4855C139.73 91.6935 140.37 91.9735 140.946 92.3255C141.522 92.6775 141.986 93.1415 142.338 93.7175C142.706 94.2935 142.89 95.0215 142.89 95.9015C142.89 96.8455 142.626 97.7095 142.098 98.4935C141.57 99.2775 140.778 99.9095 139.722 100.389C138.682 100.869 137.362 101.109 135.762 101.109ZM145.547 100.821V84.0215H149.435V100.821H145.547ZM156.902 100.821V87.1895H151.526V84.0215H166.166V87.1895H160.79V100.821H156.902ZM172.105 100.821V93.9575L172.993 96.3095L165.601 84.0215H169.729L175.393 93.4535H173.017L178.705 84.0215H182.521L175.129 96.3095L175.993 93.9575V100.821H172.105ZM33.8669 129.821V113.021H37.7549V126.653H46.1789V129.821H33.8669ZM56.2301 130.109C54.9021 130.109 53.6701 129.893 52.5341 129.461C51.4141 129.029 50.4381 128.421 49.6061 127.637C48.7901 126.853 48.1501 125.933 47.6861 124.877C47.2381 123.821 47.0141 122.669 47.0141 121.421C47.0141 120.173 47.2381 119.021 47.6861 117.965C48.1501 116.909 48.7981 115.989 49.6301 115.205C50.4621 114.421 51.4381 113.813 52.5581 113.381C53.6781 112.949 54.8941 112.733 56.2061 112.733C57.5341 112.733 58.7501 112.949 59.8541 113.381C60.9741 113.813 61.9421 114.421 62.7581 115.205C63.5901 115.989 64.2381 116.909 64.7021 117.965C65.1661 119.005 65.3981 120.157 65.3981 121.421C65.3981 122.669 65.1661 123.829 64.7021 124.901C64.2381 125.957 63.5901 126.877 62.7581 127.661C61.9421 128.429 60.9741 129.029 59.8541 129.461C58.7501 129.893 57.5421 130.109 56.2301 130.109ZM56.2061 126.797C56.9581 126.797 57.6461 126.669 58.2701 126.413C58.9101 126.157 59.4701 125.789 59.9501 125.309C60.4301 124.829 60.7981 124.261 61.0541 123.605C61.3261 122.949 61.4621 122.221 61.4621 121.421C61.4621 120.621 61.3261 119.893 61.0541 119.237C60.7981 118.581 60.4301 118.013 59.9501 117.533C59.4861 117.053 58.9341 116.685 58.2941 116.429C57.6541 116.173 56.9581 116.045 56.2061 116.045C55.4541 116.045 54.7581 116.173 54.1181 116.429C53.4941 116.685 52.9421 117.053 52.4621 117.533C51.9821 118.013 51.6061 118.581 51.3341 119.237C51.0781 119.893 50.9501 120.621 50.9501 121.421C50.9501 122.205 51.0781 122.933 51.3341 123.605C51.6061 124.261 51.9741 124.829 52.4381 125.309C52.9181 125.789 53.4781 126.157 54.1181 126.413C54.7581 126.669 55.4541 126.797 56.2061 126.797ZM76.4321 130.109C75.1041 130.109 73.8801 129.901 72.7601 129.485C71.6561 129.053 70.6881 128.445 69.8561 127.661C69.0401 126.877 68.4001 125.957 67.9361 124.901C67.4881 123.845 67.2641 122.685 67.2641 121.421C67.2641 120.157 67.4881 118.997 67.9361 117.941C68.4001 116.885 69.0481 115.965 69.8801 115.181C70.7121 114.397 71.6881 113.797 72.8081 113.381C73.9281 112.949 75.1601 112.733 76.5041 112.733C77.9921 112.733 79.3281 112.981 80.5121 113.477C81.7121 113.973 82.7201 114.693 83.5361 115.637L81.0401 117.941C80.4321 117.301 79.7681 116.829 79.0481 116.525C78.3281 116.205 77.5441 116.045 76.6961 116.045C75.8801 116.045 75.1361 116.173 74.4641 116.429C73.7921 116.685 73.2081 117.053 72.7121 117.533C72.2321 118.013 71.8561 118.581 71.5841 119.237C71.3281 119.893 71.2001 120.621 71.2001 121.421C71.2001 122.205 71.3281 122.925 71.5841 123.581C71.8561 124.237 72.2321 124.813 72.7121 125.309C73.2081 125.789 73.7841 126.157 74.4401 126.413C75.1121 126.669 75.8481 126.797 76.6481 126.797C77.4161 126.797 78.1601 126.677 78.8801 126.437C79.6161 126.181 80.3281 125.757 81.0161 125.165L83.2241 127.973C82.3121 128.661 81.2481 129.189 80.0321 129.557C78.8321 129.925 77.6321 130.109 76.4321 130.109ZM79.6721 127.469V121.157H83.2241V127.973L79.6721 127.469ZM94.9957 130.109C93.6677 130.109 92.4357 129.893 91.2997 129.461C90.1797 129.029 89.2037 128.421 88.3717 127.637C87.5557 126.853 86.9157 125.933 86.4517 124.877C86.0037 123.821 85.7797 122.669 85.7797 121.421C85.7797 120.173 86.0037 119.021 86.4517 117.965C86.9157 116.909 87.5637 115.989 88.3957 115.205C89.2277 114.421 90.2037 113.813 91.3237 113.381C92.4437 112.949 93.6597 112.733 94.9717 112.733C96.2997 112.733 97.5157 112.949 98.6197 113.381C99.7397 113.813 100.708 114.421 101.524 115.205C102.356 115.989 103.004 116.909 103.468 117.965C103.932 119.005 104.164 120.157 104.164 121.421C104.164 122.669 103.932 123.829 103.468 124.901C103.004 125.957 102.356 126.877 101.524 127.661C100.708 128.429 99.7397 129.029 98.6197 129.461C97.5157 129.893 96.3077 130.109 94.9957 130.109ZM94.9717 126.797C95.7237 126.797 96.4117 126.669 97.0357 126.413C97.6757 126.157 98.2357 125.789 98.7157 125.309C99.1957 124.829 99.5637 124.261 99.8197 123.605C100.092 122.949 100.228 122.221 100.228 121.421C100.228 120.621 100.092 119.893 99.8197 119.237C99.5637 118.581 99.1957 118.013 98.7157 117.533C98.2517 117.053 97.6997 116.685 97.0597 116.429C96.4197 116.173 95.7237 116.045 94.9717 116.045C94.2197 116.045 93.5237 116.173 92.8837 116.429C92.2597 116.685 91.7077 117.053 91.2277 117.533C90.7477 118.013 90.3717 118.581 90.0997 119.237C89.8437 119.893 89.7157 120.621 89.7157 121.421C89.7157 122.205 89.8437 122.933 90.0997 123.605C90.3717 124.261 90.7397 124.829 91.2037 125.309C91.6837 125.789 92.2437 126.157 92.8837 126.413C93.5237 126.669 94.2197 126.797 94.9717 126.797ZM125.403 113.021H129.291V129.821H125.403V113.021ZM117.771 129.821H113.883V113.021H117.771V129.821ZM125.691 122.933H117.483V119.645H125.691V122.933ZM136.841 119.789H144.929V122.813H136.841V119.789ZM137.129 126.701H146.273V129.821H133.265V113.021H145.961V116.141H137.129V126.701ZM149.367 129.821V113.021H156.639C158.143 113.021 159.439 113.269 160.527 113.765C161.615 114.245 162.455 114.941 163.047 115.853C163.639 116.765 163.935 117.853 163.935 119.117C163.935 120.365 163.639 121.445 163.047 122.357C162.455 123.253 161.615 123.941 160.527 124.421C159.439 124.901 158.143 125.141 156.639 125.141H151.527L153.255 123.437V129.821H149.367ZM160.047 129.821L155.847 123.725H159.999L164.247 129.821H160.047ZM153.255 123.869L151.527 122.045H156.423C157.623 122.045 158.519 121.789 159.111 121.277C159.703 120.749 159.999 120.029 159.999 119.117C159.999 118.189 159.703 117.469 159.111 116.957C158.519 116.445 157.623 116.189 156.423 116.189H151.527L153.255 114.341V123.869ZM170.591 119.789H178.679V122.813H170.591V119.789ZM170.879 126.701H180.023V129.821H167.015V113.021H179.711V116.141H170.879V126.701Z" fill="white"/>
</svg>
